<!DOCTYPE svg PUBLIC "-//W3C//DTD SVG 1.1//EN" "http://www.w3.org/Graphics/SVG/1.1/DTD/svg11.dtd">
<!-- Uploaded to: SVG Repo, www.svgrepo.com, Transformed by: SVG Repo Mixer Tools -->
<svg fill="#4e3ede" width="800px" height="800px" viewBox="0 0 32 32" id="Outlined" xmlns="http://www.w3.org/2000/svg">
<g id="SVGRepo_bgCarrier" stroke-width="0"/>
<g id="SVGRepo_tracerCarrier" stroke-linecap="round" stroke-linejoin="round"/>
<g id="SVGRepo_iconCarrier"> <title/> <g id="Fill"> <path d="M22,2H10A3,3,0,0,0,7,5V30.3l7.73-3.61a3,3,0,0,1,2.54,0L25,30.3V5A3,3,0,0,0,22,2Zm1,25.16-4.89-2.28a5,5,0,0,0-4.22,0L9,27.16V8H23ZM23,6H9V5a1,1,0,0,1,1-1H22a1,1,0,0,1,1,1Z"/> <path d="M15,19.58A2,2,0,0,0,16.41,19l4.3-4.29-1.42-1.42L15,17.59l-2.29-2.3-1.42,1.42L13.59,19A2,2,0,0,0,15,19.58Z"/> </g> </g>
</svg>